# xmcd
#
# Track frame offsets: 
#        150
#        21337
#        35739
#        55749
#        74651
#        91745
#        110322
#        122753
#        141036
#        157997
#        175727
#        191687
#        207729
#        220910
#        238320
#        253951
#        270856
#
# Disc length: 3808 seconds
#
# Revision: 2
# Processed by: cddbd v1.5.2PL0 Copyright (c) Steve Scherf et al.
# Submitted via: ExactAudioCopy v0.99pb4
#
DISCID=fe0ede11
DTITLE=Various Artist - Top Hits USA RC106
DYEAR=2008
DGENRE=Country
TTITLE0=Alan Jackson - Small Town Southern Man
TTITLE1=Toby Keith - Get My Drink On
TTITLE2=Brad Paisley - Letter To Me
TTITLE3=Tim McGraw - Suspicions
TTITLE4=Brooks and Dunn - God Must Be Busy
TTITLE5=Kenny Chesney - Shiftwork
TTITLE6=Garth Brooks ft. Huey Lewis - Workin' For A Livin'
TTITLE7=Martina McBride - For These Times
TTITLE8=Rodney Atkins - Cleaning This Gun (Come On In Boy)
TTITLE9=Group 1 Crew - Love Is A Beautiful Thing
TTITLE10=Carrie Underwood - All American Girl
TTITLE11=Lee Brice - Happy Ending
TTITLE12=Jack Ingram - Maybe She'll Get Lonely
TTITLE13=James Otto - Just Got Started Lovin' You
TTITLE14=Terri Clark - In My Next Life
TTITLE15=Josh Gracin - We Weren't Crazy
TTITLE16=Whiskey Falls - Falling Into You
EXTD=
EXTT0=
EXTT1=
EXTT2=
EXTT3=
EXTT4=
EXTT5=
EXTT6=
EXTT7=
EXTT8=
EXTT9=
EXTT10=
EXTT11=
EXTT12=
EXTT13=
EXTT14=
EXTT15=
EXTT16=
PLAYORDER=
